:SAMPLES-PER-SECOND 24
:FULLY-SPECIFIED
:DEGREES
74
root  -2.20691 38.9793 8.47511 129.509 -43.7971 -140.891
RightUpLeg  -29.1032 -37.2709 -35.4323
RightLeg  128.42 -12.5848 14.9583
RightFoot  44.9393 -11.246 21.5281
RightToes  -1.46203e-006 3.27826e-006 1.63871e-007
Spine  3.60802 -1.61226 -10.5431
Spine1  14.0188 -11.0612 15.1605
HEad  11.0047 -32.2955 8.73643
LeftShoulder1  2.04804 -4.18769 -20.1877
LeftArm  49.1233 -47.0209 -88.0635
LeftForeArm  44.2122 -73.11 -34.0222
LeftHand  -0.801032 -0.302851 16.3968
RightShoulder  2.53504 4.51287 25.5849
RightArm  -42.9719 -3.63919 12.5392
RightForeArm  140.13 73.6547 141.087
RightHand  -0.974546 -0.494037 -22.8032
LeftUpLeg  3.83097 14.6738 12.4131
LeftLeg  30.8455 22.9479 13.8085
LeftFoot  -8.10134 -0.270951 11.6855
LeftToes  1.24767e-006 1.47042e-008 1.32732e-009
75
root  -3.06717 39.3373 9.71727 142.628 -38.74 -158.599
RightUpLeg  -32.0719 -33.5674 -27.5637
RightLeg  122.431 -9.09338 13.615
RightFoot  41.4785 -8.05942 16.7683
RightToes  -1.46203e-006 3.27826e-006 1.63871e-007
Spine  5.00089 -0.0413185 -6.55697
Spine1  12.5595 -6.18248 8.6046
HEad  10.0797 -26.7595 4.95778
LeftShoulder1  2.09292 -3.95311 -21.7216
LeftArm  34.6709 -40.9946 -71.3688
LeftForeArm  54.0399 -77.0488 -49.2908
LeftHand  -0.724839 0.434485 17.0009
RightShoulder  2.60699 4.74377 25.5651
RightArm  -36.9302 10.4147 16.7145
RightForeArm  168.505 60.845 162.104
RightHand  -0.799527 -0.72809 -19.8179
LeftUpLeg  3.5462 6.1394 0.619244
LeftLeg  32.2678 11.7194 8.26663
LeftFoot  5.2287 -2.23955 15.0666
LeftToes  1.24767e-006 1.47042e-008 1.32732e-009
76
root  -3.70041 39.4753 10.8046 151.157 -28.474 -169.162
RightUpLeg  -32.9999 -25.796 -16.8604
RightLeg  113.688 -3.68435 8.36637
RightFoot  27.7012 -2.74309 8.15341
RightToes  -1.46203e-006 3.27826e-006 1.63871e-007
Spine  5.59993 2.32101 0.116198
Spine1  12.5824 -0.511669 3.543
HEad  7.74649 -22.6829 2.80383
LeftShoulder1  2.17133 -4.09162 -22.2779
LeftArm  25.635 -34.6868 -60.415
LeftForeArm  69.1733 -79.1901 -67.8745
LeftHand  -0.599688 1.49914 17.8285
RightShoulder  2.55138 4.91024 24.2099
RightArm  -29.9028 22.615 22.686
RightForeArm  174.058 55.0118 166.062
RightHand  -0.982498 0.313238 -19.9857
LeftUpLeg  2.82451 -6.12104 -3.25789
LeftLeg  30.3298 -5.96321 -3.33723
LeftFoot  7.77617 -1.69092 9.41757
LeftToes  1.24767e-006 1.47042e-008 1.32732e-009
77
root  -4.28424 39.2083 11.5679 158.543 -16.563 -177.309
RightUpLeg  -31.0051 -18.6564 -10.9199
RightLeg  104.666 -0.192458 1.82794
RightFoot  13.6384 0.0516477 0.320698
RightToes  -1.46203e-006 3.27826e-006 1.63871e-007
Spine  3.91788 5.28735 4.5236
Spine1  13.8409 4.75103 -1.97225
HEad  6.4487 -17.539 0.36972
LeftShoulder1  2.10384 -4.08886 -21.3336
LeftArm  18.8901 -26.5471 -52.8554
LeftForeArm  93.8289 -79.849 -94.2704
LeftHand  -0.325982 3.31991 17.9234
RightShoulder  2.39749 4.83755 22.5371
RightArm  -24.348 33.771 29.8364
RightForeArm  175.059 56.6461 165.231
RightHand  -0.844295 0.0240314 -17.9637
LeftUpLeg  1.76197 -7.59141 -5.40637
LeftLeg  24.6632 -11.4871 -5.09149
LeftFoot  3.28699 0.0162348 -0.180144
LeftToes  1.24767e-006 1.47042e-008 1.32732e-009
78
root  -4.82675 38.6344 12.4144 164.117 -8.5365 177.498
RightUpLeg  -24.8666 -17.3218 -11.3376
RightLeg  94.1779 0.545855 -2.17249
RightFoot  9.40108 0.222233 -0.821144
RightToes  -1.46203e-006 3.27826e-006 1.63871e-007
Spine  2.10093 5.78874 4.50735
Spine1  15.0141 5.70725 -4.07372
HEad  3.36421 -10.1298 -2.91955
LeftShoulder1  1.94629 -3.50991 -21.3851
LeftArm  13.2804 -17.3091 -45.1002
LeftForeArm  124.262 -77.3631 -126.443
LeftHand  -0.071696 4.98627 18.0489
RightShoulder  2.394 4.74933 22.8218
RightArm  -19.2772 46.3902 36.826
RightForeArm  176.459 62.4849 161.619
RightHand  -0.526125 -0.732886 -13.0233
LeftUpLeg  -3.32164 -0.771709 -8.49016
LeftLeg  22.0483 -6.96167 -3.59866
LeftFoot  2.84875 -0.132151 0.907205
LeftToes  1.24767e-006 1.47042e-008 1.32732e-009
